{"title":"Marmaduke.2010.R5.XviD.NEW-MAGNET","uid":5668120,"size":993698007,"categoryP":"video","categoryS":"movies","magnet":"?xt=urn:btih:2165d6a5b63c82f68ff3215d5b9ed43773e7de61&amp;dn=Marmaduke.2010.R5.XviD.NEW-MAGNET&amp;tr=udp%3A%2F%2Ftracker.openbittorrent.com%3A80&amp;tr=udp%3A%2F%2Fopen.demonii.com%3A1337&amp;tr=udp%3A%2F%2Ftracker.coppersurfer.tk%3A6969&amp;tr=udp%3A%2F%2Fexodus.desync.com%3A6969","seeders":0,"leechers":0,"uploader":"hiest","files":4,"time":1278223725,"description":"NOTE:\n------------\nAUDIO is synchronized \n\nWe fixed the audio, sorry if the previous releases there is a gap \n\n\n \nA suburban family moves to a new neighborhood with their large yet lovable Great Dane, who has a tendency to wreak havoc in his own oblivious way.\n\n\n \nVideo\nFormat : xvid\nCodec ID : xvid\nDuration : 1h 22mn\nBit rate : 1 496 Kbps\nWidth : 720 pixels\nHeight : 304 pixels\nDisplay aspect ratio : 2.35:1\nFrame rate : 25.000 fps\nBits/(Pixel*Frame) : 0.273\nStream size : 888 MiB (95%)\n\nAudio\nID : 1\nFormat : MPEG Audio\nFormat version : Version 1\nFormat profile : Layer 2\nCodec ID : 50\nDuration : 1h 22mn\nBit rate mode : Constant\nBit rate : 64.0 Kbps\nChannel(s) : 2 channels\nSampling rate : 44.1 KHz\nStream size : 38.0 MiB (4%)\nAlignment : Aligned on interleaves\nInterleave, duration : 26 ms (0.65 video frame)\nInterleave, preload duration : 26 ms\n\n\nScreenshots\n &lt;a href=&quot;\nhttp://postimg.com/image/18000/17399.jpg&quot; rel=&quot;nofollow&quot; target=&quot;_NEW&quot;&gt;\nhttp://postimg.com/image/18000/17399.jpg&lt;/a&gt;\n &lt;a href=&quot;\nhttp://postimg.com/image/18000/17400.jpg&quot; rel=&quot;nofollow&quot; target=&quot;_NEW&quot;&gt;\nhttp://postimg.com/image/18000/17400.jpg&lt;/a&gt;\n\n","torrent":{"xt":"urn:btih:2165d6a5b63c82f68ff3215d5b9ed43773e7de61","amp;dn":"Marmaduke.2010.R5.XviD.NEW-MAGNET","amp;tr":["udp%3A%2F%2Ftracker.openbittorrent.com%3A80","udp%3A%2F%2Fopen.demonii.com%3A1337","udp%3A%2F%2Ftracker.coppersurfer.tk%3A6969","udp%3A%2F%2Fexodus.desync.com%3A6969"],"infoHash":"2165d6a5b63c82f68ff3215d5b9ed43773e7de61","infoHashBuffer":{"type":"Buffer","data":[33,101,214,165,182,60,130,246,143,243,33,93,91,158,212,55,115,231,222,97]},"announce":[],"urlList":[]}}